<svg xmlns="http://www.w3.org/2000/svg" width="20.67" height="20.67" viewBox="0 0 20.67 20.67">
  <path id="Icon_awesome-linkedin" data-name="Icon awesome-linkedin" d="M19.193,2.25H1.472A1.483,1.483,0,0,0,0,3.74V21.429a1.483,1.483,0,0,0,1.472,1.49H19.193a1.487,1.487,0,0,0,1.476-1.49V3.74A1.487,1.487,0,0,0,19.193,2.25ZM6.247,19.967H3.183V10.1H6.252v9.864ZM4.715,8.755A1.776,1.776,0,1,1,6.492,6.979,1.777,1.777,0,0,1,4.715,8.755ZM17.731,19.967H14.667v-4.8c0-1.144-.023-2.616-1.592-2.616-1.6,0-1.841,1.246-1.841,2.533v4.881H8.171V10.1H11.11V11.45h.042a3.227,3.227,0,0,1,2.9-1.592c3.1,0,3.677,2.044,3.677,4.7Z" transform="translate(0 -2.25)" fill="#003f62"/>
</svg>
